<svg xmlns="http://www.w3.org/2000/svg" height="16" width="16" viewBox="0 0 4.233 4.233"><path d="M3.175.661v.398c-.66 0-1.114.474-1.511.87-.397.397-.738.717-1.135.717a.265.265 0 1 0 0 .53c.662 0 1.113-.474 1.51-.871s.74-.716 1.136-.717v.396l.926-.661L3.175.66zm-2.672.397a.265.265 0 0 0-.001 0 .265.265 0 1 0 .027.53c.26 0 .498.145.743.352.066-.062.133-.124.206-.198l.18-.177C1.348 1.29.99 1.059.53 1.059a.265.265 0 0 0-.026 0zm2.672 1.19v.398c-.26 0-.499-.145-.743-.353a8.32 8.32 0 0 0-.205.197l-.183.18c.31.273.67.506 1.131.506v.396l.926-.662-.926-.661z" fill="#000"/></svg>
