<?xml version="1.0" encoding="UTF-8" standalone="no"?>
<svg
   xmlns:dc="http://purl.org/dc/elements/1.1/"
   xmlns:cc="http://creativecommons.org/ns#"
   xmlns:rdf="http://www.w3.org/1999/02/22-rdf-syntax-ns#"
   xmlns:svg="http://www.w3.org/2000/svg"
   xmlns="http://www.w3.org/2000/svg"
   xmlns:xlink="http://www.w3.org/1999/xlink"
   xmlns:sodipodi="http://sodipodi.sourceforge.net/DTD/sodipodi-0.dtd"
   xmlns:inkscape="http://www.inkscape.org/namespaces/inkscape"
   height="16"
   width="16"
   viewBox="0 0 4.233 4.233"
   version="1.1"
   id="svg4"
   sodipodi:docname="icon-circle.svg"
   inkscape:version="0.92.2 (unknown)">
  <metadata
     id="metadata10">
    <rdf:RDF>
      <cc:Work
         rdf:about="">
        <dc:format>image/svg+xml</dc:format>
        <dc:type
           rdf:resource="http://purl.org/dc/dcmitype/StillImage" />
        <dc:title></dc:title>
      </cc:Work>
    </rdf:RDF>
  </metadata>
  <defs
     id="defs8">
    <linearGradient
       inkscape:collect="always"
       id="linearGradient842">
      <stop
         style="stop-color:#e9322d;stop-opacity:1;"
         offset="0"
         id="stop838" />
      <stop
         style="stop-color:#f05a48;stop-opacity:1"
         offset="1"
         id="stop840" />
    </linearGradient>
    <linearGradient
       inkscape:collect="always"
       xlink:href="#linearGradient842"
       id="linearGradient844"
       x1="0"
       y1="2.1165001"
       x2="4.2329998"
       y2="2.1165001"
       gradientUnits="userSpaceOnUse" />
  </defs>
  <sodipodi:namedview
     pagecolor="#ffffff"
     bordercolor="#666666"
     borderopacity="1"
     objecttolerance="10"
     gridtolerance="10"
     guidetolerance="10"
     inkscape:pageopacity="0"
     inkscape:pageshadow="2"
     inkscape:window-width="1920"
     inkscape:window-height="1046"
     id="namedview6"
     showgrid="false"
     inkscape:zoom="29.5"
     inkscape:cx="-2.0872039"
     inkscape:cy="10.784044"
     inkscape:window-x="0"
     inkscape:window-y="34"
     inkscape:window-maximized="1"
     inkscape:current-layer="svg4" />
  <circle
     style="opacity:1;fill:url(#linearGradient844);fill-opacity:1;stroke:none;stroke-width:1.03201234;stroke-linecap:round;stroke-linejoin:round;stroke-miterlimit:4;stroke-dasharray:none;stroke-dashoffset:9.99999905;stroke-opacity:0.92164175;paint-order:markers stroke fill"
     id="path836"
     cx="2.1164999"
     cy="2.1165001"
     r="2.1164999" />
  <path
     d="M 3.0357072,0.86378829 V 1.2063177 c -0.5680136,0 -0.9587381,0.407937 -1.3004068,0.7487451 C 1.3936316,2.2967316 1.100158,2.5721321 0.75848919,2.5721321 a 0.22806605,0.22806605 0 1 0 0,0.4561321 c 0.56973481,0 0.95787741,-0.407937 1.29954621,-0.7496058 C 2.3997041,1.9369897 2.6948991,1.6624498 3.0357072,1.6615892 V 2.0023973 L 3.8326474,1.4335231 3.0357072,0.86292766 Z M 0.7361129,1.2054571 a 0.22806605,0.22806605 0 0 0 -8.6063e-4,0 0.2283618,0.2283618 0 1 0 0.0232369,0.4561321 c 0.22376292,0 0.42859203,0.1247908 0.63944563,0.3029405 0.056801,-0.053359 0.1144633,-0.1067177 0.177289,-0.1704041 L 1.7301366,1.6417947 C 1.4633424,1.4051224 1.1552381,1.2063177 0.75934982,1.2063177 a 0.22806605,0.22806605 0 0 0 -0.0223763,0 z m 2.2995943,1.0241456 v 0.3425294 c -0.2237629,0 -0.4294527,-0.1247909 -0.6394456,-0.3038012 A 7.1604134,7.1604134 0 0 0 2.2198332,2.4378744 L 2.0623385,2.5927871 C 2.3291327,2.8277382 2.6389583,3.0282642 3.0357072,3.0282642 V 3.3690723 L 3.8326474,2.7993375 3.0357072,2.2304633 Z"
     id="path2"
     style="fill:#ffffff;fill-opacity:1;stroke-width:0.86062658"
     inkscape:connector-curvature="0" />
</svg>
